<svg width="559" height="89" viewBox="0 0 559 89" fill="none" xmlns="http://www.w3.org/2000/svg">
<g opacity="0.5">
<path d="M557.537 6.35059C557.537 4.67679 556.275 3.09325 553.491 2.82129L553.217 2.79883C552.425 2.72683 551.363 2.7086 550.071 2.7041L548.705 2.70313C535.073 2.70313 502.338 4.23921 494.657 5.19922L494.304 5.24902C490.722 5.81687 489.28 7.95299 489.28 9.99902L489.285 10.1963C489.383 12.2343 490.999 14.1149 493.696 13.7432C499.456 13.0712 509.249 12.3989 519.232 11.9189C516.256 24.1109 508.481 64.3353 505.601 81.9033C505.043 85.2512 506.827 86.9775 509.034 87.082L509.249 87.0869C511.649 87.0868 514.529 84.9745 515.104 80.8467C517.409 63.1827 525.281 24.9756 529.121 11.4395C538.433 11.0555 546.976 10.9587 551.488 11.0547C555.115 11.1477 557.392 8.80841 557.53 6.56738L557.537 6.35059ZM558.537 6.35059C558.537 9.33012 555.649 12.162 551.463 12.0547V12.0537C547.094 11.961 538.9 12.0514 529.889 12.4102C525.997 26.4701 518.356 63.6528 516.097 80.9766L516.095 80.9854C515.461 85.523 512.228 88.0868 509.249 88.0869C507.848 88.0869 506.483 87.5563 505.566 86.418C504.647 85.277 504.292 83.6699 504.614 81.7383C507.401 64.738 514.767 26.5447 517.949 12.9844C508.44 13.4587 499.282 14.0982 493.812 14.7363L493.812 14.7354C492.146 14.9592 490.741 14.47 489.755 13.5313C488.784 12.6065 488.28 11.3045 488.28 9.99902C488.28 8.69457 488.758 7.35811 489.816 6.28516C490.872 5.21501 492.443 4.46831 494.533 4.20703C502.273 3.2396 535.056 1.70313 548.705 1.70313C550.603 1.70313 552.195 1.7016 553.308 1.80274H553.307C554.951 1.91324 556.258 2.42867 557.168 3.26172C558.09 4.1056 558.537 5.21615 558.537 6.35059Z" fill="#403A2F"/>
<path d="M411.931 63.5684C407.515 35.4404 439.195 8.56038 464.251 10.1924C469.819 10.5764 473.083 13.7444 470.779 19.9844L470.666 20.3135C468.525 27.0516 477.722 29.2895 480.536 21.7031L480.667 21.3281C481.147 19.7921 481.435 18.0639 481.435 16.3359C481.435 12.7088 480.264 8.90146 477.659 6.31055L477.403 6.06445C474.793 3.72446 470.158 2.48122 464.764 2.33496L463.675 2.32031C460.411 2.32033 456.859 2.70369 453.211 3.47168C426.907 9.23166 402.139 30.9278 402.139 59.0557C402.139 61.6477 402.331 64.3364 402.811 67.0244C404.323 76.6634 412.719 86.5813 428.64 86.8887L429.403 86.8965C430.627 86.8965 431.851 86.8424 433.156 86.7344L434.491 86.6084C454.171 84.3044 471.45 70.1923 477.307 59.4404C481.243 52.2405 473.275 48.2081 469.243 54.2559C464.155 61.9358 450.235 77.2955 434.779 78.6396C419.515 79.9836 413.371 72.4962 411.931 63.5684ZM482.435 16.3359C482.435 18.1709 482.129 19.9992 481.621 21.626L481.619 21.6338L481.617 21.6406C480.14 26.1259 476.58 27.9376 473.556 27.3623C472.065 27.0786 470.728 26.2041 469.974 24.8154C469.215 23.4183 469.114 21.6299 469.84 19.6416L469.841 19.6377C470.925 16.7015 470.613 14.745 469.669 13.4951C468.694 12.2041 466.828 11.372 464.183 11.1895V11.1885C452.007 10.3968 438.085 16.5491 427.729 26.4434C417.38 36.3322 410.779 49.7744 412.918 63.4092L413.062 64.208C413.842 68.1759 415.625 71.7083 418.785 74.167C422.154 76.788 427.23 78.3005 434.691 77.6436H434.692C442.133 76.9965 449.289 72.9603 455.265 68.0518C461.229 63.1527 465.915 57.4689 468.409 53.7041L468.411 53.7012C470.668 50.3161 474.225 49.5546 476.762 51.0127C478.014 51.7325 478.943 52.9681 479.256 54.5479C479.567 56.1224 479.255 57.9627 478.185 59.9199C475.162 65.4679 469.254 71.7929 461.649 77.0166C454.034 82.2475 444.642 86.4267 434.607 87.6016L434.596 87.6025C432.743 87.7975 431.076 87.8965 429.403 87.8965C412.511 87.8965 403.448 77.4764 401.826 67.1992C401.334 64.444 401.139 61.696 401.139 59.0557C401.139 30.3002 426.408 8.31745 452.997 2.49512L453.005 2.49316C456.713 1.71245 460.335 1.32033 463.675 1.32031C469.605 1.32031 475.006 2.57204 478.07 5.31934L478.077 5.32617L478.084 5.33203C481.126 8.16399 482.435 12.3989 482.435 16.3359Z" fill="#403A2F"/>
<path d="M333.129 66.0645C349.257 63.3765 371.337 62.7039 379.017 63.0879C380.073 70.0959 380.841 76.7205 381.225 82.4805C381.504 86.0143 383.585 87.6565 385.896 87.8428L386.12 87.8564H386.312L386.548 87.8496C388.986 87.722 391.688 85.6268 391.688 82V81.6162C390.824 66.4484 379.113 15.4729 374.505 4.24023C373.833 2.51223 371.912 1.26367 369.608 1.26367C367.496 1.26371 365.001 2.32 362.889 5.00781L361.646 6.59961C348.358 23.8451 321.335 65.4043 312.872 80.6562C312.2 81.8079 311.912 82.8637 311.912 83.7275C311.912 88.3355 319.112 89.2959 322.28 83.9199C325.352 78.352 328.809 73.1684 333.129 66.0645ZM367.784 12.0156C370.76 21.0396 374.696 37.6485 377.48 54.0645C370.952 53.8725 352.905 54.5436 337.929 56.5596C347.433 41.9676 359.912 22.1915 367.784 12.0156ZM367.416 14.1523C359.886 24.1942 348.829 41.6074 339.942 55.292C353.642 53.592 369.26 52.9557 376.287 53.04C373.705 38.101 370.215 23.1797 367.416 14.1523ZM392.688 82C392.688 86.3295 389.327 88.8564 386.312 88.8564H386.101L386.08 88.8555C384.665 88.7988 383.266 88.2846 382.179 87.2119C381.089 86.1366 380.387 84.5749 380.228 82.5586L380.227 82.5469C379.86 77.0446 379.137 70.7385 378.146 64.0518C369.952 63.7564 349.206 64.4539 333.741 66.9785C329.507 73.9244 326.159 78.9604 323.156 84.4033L323.149 84.415L323.142 84.4277C321.367 87.4394 318.417 88.7342 315.843 88.5654C314.56 88.4813 313.336 88.0296 312.417 87.2002C311.483 86.3567 310.912 85.1626 310.912 83.7275C310.912 82.6533 311.266 81.4319 311.998 80.1709L312.876 78.6104C322.525 61.6748 349.698 20.0594 362.104 4.3877C364.38 1.49363 367.15 0.263707 369.608 0.263672C372.243 0.263672 374.577 1.69192 375.43 3.86035L375.654 4.4248C378.027 10.5473 381.982 25.7086 385.477 41.2324C389.086 57.263 392.249 73.8796 392.687 81.5596L392.688 81.5879V82Z" fill="#403A2F"/>
<path d="M332.35 6.35059C332.349 4.67679 331.088 3.09325 328.304 2.82129L328.029 2.79883C327.237 2.72683 326.175 2.7086 324.884 2.7041L323.518 2.70313C309.886 2.70313 277.151 4.23921 269.47 5.19922L269.116 5.24902C265.535 5.81687 264.093 7.95299 264.093 9.99902L264.098 10.1963C264.196 12.2343 265.812 14.1149 268.509 13.7432C274.269 13.0712 284.061 12.3989 294.045 11.9189C291.069 24.1109 283.293 64.3353 280.413 81.9033C279.855 85.2512 281.64 86.9775 283.847 87.082L284.062 87.0869C286.461 87.0868 289.341 84.9745 289.917 80.8467C292.221 63.1827 300.094 24.9756 303.934 11.4395C313.245 11.0555 321.789 10.9587 326.301 11.0547C329.928 11.1477 332.204 8.80841 332.343 6.56738L332.35 6.35059ZM333.35 6.35059C333.35 9.33012 330.461 12.162 326.275 12.0547V12.0537C321.907 11.961 313.713 12.0514 304.701 12.4102C300.809 26.4701 293.169 63.6528 290.909 80.9766L290.907 80.9854C290.274 85.523 287.041 88.0868 284.062 88.0869C282.66 88.0869 281.296 87.5563 280.379 86.418C279.46 85.277 279.105 83.6699 279.427 81.7383C282.214 64.738 289.58 26.5447 292.762 12.9844C283.252 13.4587 274.095 14.0982 268.625 14.7363L268.624 14.7354C266.959 14.9592 265.553 14.47 264.567 13.5313C263.596 12.6065 263.093 11.3045 263.093 9.99902C263.093 8.69457 263.571 7.35811 264.629 6.28516C265.684 5.21501 267.255 4.46831 269.346 4.20703C277.086 3.2396 309.868 1.70313 323.518 1.70313C325.416 1.70313 327.008 1.7016 328.12 1.80274H328.119C329.764 1.91324 331.07 2.42867 331.98 3.26172C332.902 4.1056 333.349 5.21615 333.35 6.35059Z" fill="#403A2F"/>
<path d="M255.646 6.35156C255.645 3.84081 253.663 2.41111 251.619 2.32422L251.421 2.32031C249.021 2.32048 246.429 4.04818 245.949 7.79199C244.989 16.048 239.421 45.52 234.333 69.04C220.509 46.864 204.861 19.0239 198.813 8.46387C201.213 1.93604 192.093 -0.0800805 189.213 6.92773C186.333 14.0317 174.814 68.5589 173.47 80.8477V81.8076L173.476 82.1182C173.602 85.2682 175.653 86.7996 177.885 86.7998C180.477 86.7998 183.357 84.6877 183.549 80.8477C185.757 63.2796 190.173 34.5754 194.493 17.1035C202.941 32.1755 222.909 66.6404 231.165 79.9844L231.148 80.2881C231.117 80.6077 231.046 80.968 230.974 81.3281L230.918 81.6729C230.427 85.178 232.392 86.7996 234.717 86.7998C237.135 86.7998 240.004 84.9981 240.792 81.7432L240.861 81.4238C245.085 58.0001 254.493 19.4088 255.646 7.02441V6.35156ZM256.646 7.07031L256.641 7.11621C256.058 13.3824 253.4 26.1997 250.383 40.293C247.356 54.4291 243.954 69.9103 241.846 81.6016L241.843 81.6152C241.074 85.5655 237.666 87.7998 234.717 87.7998C233.282 87.7997 231.861 87.2785 230.912 86.0928C229.961 84.9043 229.619 83.2165 229.989 81.1514L229.991 81.1416L229.992 81.1318C230.066 80.7652 230.121 80.4712 230.147 80.2373C222.172 67.3189 203.839 35.7136 194.871 19.8145C190.761 37.3596 186.65 64.194 184.544 80.9473C184.303 85.2962 180.991 87.7998 177.885 87.7998C176.497 87.7997 175.125 87.3056 174.101 86.2656C173.07 85.2199 172.47 83.7036 172.47 81.8076V80.7939L172.476 80.7393C173.154 74.5353 176.382 57.7786 179.787 41.7363C181.492 33.7031 183.246 25.8284 184.755 19.5146C186.254 13.2411 187.531 8.4152 188.286 6.55273L188.288 6.54785C189.895 2.63683 193.34 1.09886 196.18 1.6377C197.592 1.90561 198.872 2.69993 199.602 3.99316C200.277 5.19036 200.409 6.69045 199.902 8.35547C205.913 18.8609 220.564 44.8942 233.874 66.4062C238.815 43.3245 244.035 15.5986 244.956 7.67676L244.957 7.66504C245.499 3.43493 248.505 1.32048 251.421 1.32031C253.942 1.32031 256.645 3.07498 256.646 6.35156V7.07031Z" fill="#403A2F"/>
<path d="M168.688 30.2549C168.688 14.6624 160.223 3.81391 142.743 2.37988L141.904 2.31934C141.184 2.24734 140.518 2.22911 139.825 2.22461L139.12 2.22266V1.22266C140.069 1.22266 140.976 1.22229 141.986 1.32227C151.194 1.91359 158.152 5.01363 162.803 10.1045C167.452 15.1939 169.688 22.1543 169.688 30.2549C169.688 35.6532 168.707 41.6093 166.764 47.9248V47.9268C159.664 70.8775 139.58 88.4707 119.248 88.4707C108.276 88.4707 100.605 85.0838 95.4395 80.2314C90.2955 75.3988 87.7183 69.1897 86.7764 63.6523C86.2831 60.9882 86.0879 58.2374 86.0879 55.5986C86.0881 28.4301 109.027 1.22266 138.832 1.22266V2.22266L138.149 2.22754C109.297 2.63954 87.0881 29.1192 87.0879 55.5986C87.0879 58.1905 87.2798 60.8788 87.7598 63.4707C89.5553 74.0547 97.4906 87.0573 118.25 87.4609L119.248 87.4707C139.024 87.4707 158.8 70.2868 165.808 47.6309C167.608 41.781 168.564 36.2687 168.677 31.252L168.688 30.2549ZM96.208 57.2314C94.288 34.7675 113.104 8.847 141.136 10.3828C159.952 11.4388 163.312 27.3748 156.976 46.0947C151.12 63.4706 134.416 78.7343 119.152 79.3105C105.04 79.9825 97.4561 70.8632 96.208 57.2314ZM141.08 11.3809C113.759 9.88461 95.3309 35.178 97.2041 57.1396L97.2656 57.7607C97.9498 64.143 100.075 69.3635 103.57 72.9355C107.157 76.6011 112.288 78.6371 119.104 78.3125L119.114 78.3115C126.441 78.035 134.221 74.2187 140.928 68.2559C147.625 62.3018 153.16 54.2852 156.028 45.7754V45.7744C159.164 36.5085 159.835 28.1077 157.551 21.9639C156.417 18.9129 154.554 16.4122 151.88 14.6045C149.199 12.7921 145.646 11.6381 141.08 11.3818V11.3809ZM139.12 1.22266V2.22266H138.832V1.22266H139.12Z" fill="#403A2F"/>
<path d="M11.0557 63.5684C6.63966 35.4404 38.32 8.56038 63.376 10.1924C68.944 10.5764 72.2083 13.7444 69.9043 19.9844L69.791 20.3135C67.6504 27.0516 76.8466 29.2895 79.6611 21.7031L79.792 21.3281C80.272 19.7921 80.5596 18.0639 80.5596 16.3359C80.5596 12.7088 79.3887 8.90146 76.7842 6.31055L76.5283 6.06445C73.9183 3.72446 69.283 2.48122 63.8887 2.33496L62.7998 2.32031C59.5359 2.32033 55.9839 2.70369 52.3359 3.47168C26.032 9.23166 1.26387 30.9278 1.26367 59.0557C1.26367 61.6477 1.45555 64.3364 1.93555 67.0244C3.4477 76.6634 11.8441 86.5813 27.7646 86.8887L28.5283 86.8965C29.7523 86.8965 30.9763 86.8424 32.2812 86.7344L33.6162 86.6084C53.2959 84.3044 70.5754 70.1923 76.4316 59.4404C80.3676 52.2405 72.4002 48.2081 68.3682 54.2559C63.2802 61.9358 49.3602 77.2955 33.9043 78.6396C18.6405 79.9836 12.4958 72.4962 11.0557 63.5684ZM81.5596 16.3359C81.5596 18.1709 81.2544 19.9992 80.7461 21.626L80.7441 21.6338L80.7422 21.6406C79.2647 26.1259 75.7045 27.9376 72.6807 27.3623C71.1898 27.0786 69.8528 26.2041 69.0986 24.8154C68.34 23.4183 68.2395 21.6299 68.9648 19.6416L68.9658 19.6377C70.0499 16.7015 69.7382 14.745 68.7939 13.4951C67.8185 12.2041 65.9534 11.372 63.3076 11.1895V11.1885C51.1321 10.3968 37.2103 16.5491 26.8545 26.4434C16.5045 36.3322 9.90396 49.7744 12.043 63.4092L12.1865 64.208C12.9674 68.1759 14.7504 71.7083 17.9102 74.167C21.2786 76.788 26.3549 78.3005 33.8164 77.6436H33.8174C41.2584 76.9965 48.4141 72.9603 54.3896 68.0518C60.3537 63.1527 65.0399 57.4689 67.5342 53.7041L67.5361 53.7012C69.7929 50.3161 73.3502 49.5546 75.8867 51.0127C77.1389 51.7325 78.0682 52.9681 78.3809 54.5479C78.6925 56.1224 78.3795 57.9627 77.3096 59.9199C74.2874 65.4679 68.3792 71.7929 60.7744 77.0166C53.1591 82.2475 43.7672 86.4267 33.7324 87.6016L33.7207 87.6025C31.8685 87.7975 30.2011 87.8965 28.5283 87.8965C11.6363 87.8965 2.57302 77.4764 0.951172 67.1992C0.459213 64.444 0.263672 61.696 0.263672 59.0557C0.263868 30.3002 25.5335 8.31745 52.1221 2.49512L52.1299 2.49316C55.8383 1.71245 59.4596 1.32033 62.7998 1.32031C68.7299 1.32031 74.1309 2.57204 77.1953 5.31934L77.2021 5.32617L77.209 5.33203C80.2507 8.16399 81.5596 12.3989 81.5596 16.3359Z" fill="#403A2F"/>
</g>
</svg>
