<svg width="14" height="12" viewBox="0 0 14 12" fill="none" xmlns="http://www.w3.org/2000/svg">
<path d="M7.29289 1.70711C6.90237 1.31658 6.90237 0.683568 7.29289 0.293044C7.68342 -0.0974802 8.31643 -0.0974802 8.70696 0.293044L13.707 5.29304C14.0975 5.68357 14.0975 6.31658 13.707 6.70711L8.70696 11.7071C8.31643 12.0976 7.68342 12.0976 7.29289 11.7071C6.90237 11.3166 6.90237 10.6836 7.29289 10.293L11.5859 6.00008L7.29289 1.70711Z" fill="white"/>
<path d="M0.292893 1.70711C-0.0976311 1.31658 -0.0976311 0.683568 0.292893 0.293044C0.683418 -0.0974802 1.31643 -0.0974802 1.70696 0.293044L6.70696 5.29304C7.09748 5.68357 7.09748 6.31658 6.70696 6.70711L1.70696 11.7071C1.31643 12.0976 0.683418 12.0976 0.292893 11.7071C-0.0976311 11.3166 -0.0976311 10.6836 0.292893 10.293L4.58586 6.00008L0.292893 1.70711Z" fill="white"/>
</svg>
