<svg width="12" height="14" viewBox="0 0 12 14" fill="none" xmlns="http://www.w3.org/2000/svg">
<path d="M1.70698 6.70711C1.31646 7.09763 0.683446 7.09763 0.292922 6.70711C-0.0976023 6.31658 -0.0976023 5.68357 0.292922 5.29304L5.29292 0.293044C5.68345 -0.0974802 6.31646 -0.0974802 6.70698 0.293044L11.707 5.29304C12.0975 5.68357 12.0975 6.31658 11.707 6.70711C11.3165 7.09763 10.6834 7.09763 10.2929 6.70711L5.99995 2.41414L1.70698 6.70711Z" fill="white"/>
<path d="M1.70698 13.7071C1.31646 14.0976 0.683446 14.0976 0.292922 13.7071C-0.0976023 13.3166 -0.0976023 12.6836 0.292922 12.293L5.29292 7.29304C5.68345 6.90252 6.31646 6.90252 6.70698 7.29304L11.707 12.293C12.0975 12.6836 12.0975 13.3166 11.707 13.7071C11.3165 14.0976 10.6834 14.0976 10.2929 13.7071L5.99995 9.41414L1.70698 13.7071Z" fill="white"/>
</svg>
